<svg width="121" height="120" viewBox="0 0 121 120" fill="none" xmlns="http://www.w3.org/2000/svg">
<circle cx="60.5" cy="60" r="60" fill="#FABB03"/>
<path fill-rule="evenodd" clip-rule="evenodd" d="M60.4276 33.2251C58.0985 33.1887 55.784 33.5497 53.6166 34.2872C51.4491 35.0248 49.4712 36.1245 47.7961 37.5235C46.121 38.9224 44.7815 40.5931 43.8544 42.4399C42.9272 44.2868 42.4306 46.2735 42.3929 48.2864V69.3376C42.3929 70.6146 41.8059 71.8393 40.761 72.7423C39.7162 73.6453 38.2991 74.1526 36.8214 74.1526H29.8571C27.6407 74.1526 25.515 73.3917 23.9478 72.0372C22.3805 70.6827 21.5 68.8456 21.5 66.9301V57.3001C21.5 55.3846 22.3805 53.5475 23.9478 52.193C25.515 50.8385 27.6407 50.0776 29.8571 50.0776H34.0357V48.1997C34.0865 45.2404 34.8114 42.3187 36.169 39.6015C37.5265 36.8843 39.4901 34.4249 41.9476 32.3636C44.4051 30.3023 47.3084 28.6796 50.4917 27.5882C53.6749 26.4968 57.0758 25.958 60.5 26.0026C63.9242 25.958 67.3251 26.4968 70.5083 27.5882C73.6916 28.6796 76.5949 30.3023 79.0524 32.3636C81.5099 34.4249 83.4735 36.8843 84.831 39.6015C86.1886 42.3187 86.9135 45.2404 86.9643 48.1997V50.0776H91.1429C93.3593 50.0776 95.485 50.8385 97.0523 52.193C98.6195 53.5475 99.5 55.3846 99.5 57.3001V66.9301C99.5 68.8456 98.6195 70.6827 97.0523 72.0372C95.485 73.3917 93.3593 74.1526 91.1429 74.1526H86.9643V76.5601C86.965 79.8139 85.5795 82.954 83.0721 85.3812C80.5647 87.8084 77.1109 89.3527 73.37 89.7195C72.6435 90.8405 71.5842 91.7737 70.3012 92.4229C69.0182 93.0721 67.5581 93.4137 66.0714 93.4126H57.7143C55.4978 93.4126 53.3722 92.6517 51.8049 91.2972C50.2376 89.9427 49.3571 88.1056 49.3571 86.1901C49.3571 84.2746 50.2376 82.4375 51.8049 81.083C53.3722 79.7285 55.4978 78.9676 57.7143 78.9676H66.0714C69.0911 78.9676 71.7376 80.3495 73.2029 82.4248C74.7385 82.1197 76.109 81.3737 77.0906 80.3085C78.0722 79.2432 78.6068 77.9218 78.6071 76.5601V48.2816C78.5689 46.2583 78.067 44.2617 77.1305 42.407C76.194 40.5524 74.8414 38.8766 73.1509 37.4766C71.4604 36.0765 69.4655 34.9799 67.2817 34.2501C65.0978 33.5204 62.7682 33.172 60.4276 33.2251Z" fill="white"/>
</svg>
