<svg xmlns="http://www.w3.org/2000/svg" version="1.1" xmlns:xlink="http://www.w3.org/1999/xlink" width="512" height="512" x="0" y="0" viewBox="0 0 64 64" style="enable-background:new 0 0 512 512" xml:space="preserve" class=""><g><path d="M8 63h48a7.008 7.008 0 0 0 7-7 1 1 0 0 0-1-1h-3V25a4 4 0 0 0-4-4h-5.118a18 18 0 1 0-35.764 0H9a4 4 0 0 0-4 4v30H2a1 1 0 0 0-1 1 7.008 7.008 0 0 0 7 7Zm47-40a2 2 0 0 1 2 2v30h-2V26a1 1 0 0 0-1-1h-5.05a17.686 17.686 0 0 0 .586-2ZM32 37a18 18 0 0 0 16.1-10H53v28H39a1.006 1.006 0 0 0-.555.168L35.7 57h-7.4l-2.748-1.832A1.006 1.006 0 0 0 25 55H11V27h4.9A18 18 0 0 0 32 37Zm0-34a16 16 0 1 1-16 16A16.019 16.019 0 0 1 32 3ZM7 25a2 2 0 0 1 2-2h5.464a17.686 17.686 0 0 0 .586 2H10a1 1 0 0 0-1 1v29H7Zm17.7 32 2.748 1.832A1.006 1.006 0 0 0 28 59h8a1.006 1.006 0 0 0 .555-.168L39.3 57h21.6a5.008 5.008 0 0 1-4.9 4H8a5.018 5.018 0 0 1-4.9-4Z" fill="#fabb03" opacity="1" data-original="#000000" class=""></path><path d="M14 53h36a1 1 0 0 0 1-1V40a1 1 0 0 0-1-1H14a1 1 0 0 0-1 1v12a1 1 0 0 0 1 1Zm35-10h-3v2h3v2h-5v2h5v2h-7V41h7Zm-34-2h25v10H15Z" fill="#fabb03" opacity="1" data-original="#000000" class=""></path><path d="M17 43h8v2h-8zM17 47h13v2H17zM28.105 31.447a1 1 0 0 0 .735.54A.959.959 0 0 0 29 32a1 1 0 0 0 .707-.293l2-2a1 1 0 0 0 .273-.9l-.895-4.475 2.974-2.974 4.041 8.089a1 1 0 0 0 .833.551h.062a1 1 0 0 0 .832-.445l2-3a1 1 0 0 0 .133-.818l-2.642-9.688a32.812 32.812 0 0 0 3.251-4.108 2.535 2.535 0 0 0-3.515-3.515 32.812 32.812 0 0 0-4.108 3.251l-9.683-2.64a1 1 0 0 0-.818.133l-3 2a1 1 0 0 0 .108 1.727l8.092 4.046-2.974 2.974-4.471-.895a.994.994 0 0 0-.9.273l-2 2a1 1 0 0 0 .26 1.6l5.7 2.85Zm11.019-4.435-3.574-7.148 2.15-2.153 2.213 8.113ZM23.988 11.876l1.188-.792 8.113 2.216-2.153 2.15Zm-1.659 9.209 4.475.895a.994.994 0 0 0 .9-.273l7.779-7.779a30.785 30.785 0 0 1 4.682-3.838.553.553 0 0 1 .832.445.532.532 0 0 1-.09.3 30.785 30.785 0 0 1-3.838 4.682l-7.779 7.779a1 1 0 0 0-.273.9l.895 4.475-.641.641-2.371-4.759a1 1 0 0 0-.448-.448l-4.759-2.379Z" fill="#fabb03" opacity="1" data-original="#000000" class=""></path></g></svg>