<svg xmlns="http://www.w3.org/2000/svg" version="1.1" xmlns:xlink="http://www.w3.org/1999/xlink" width="512" height="512" x="0" y="0" viewBox="0 0 512 512" style="enable-background:new 0 0 512 512" xml:space="preserve" class=""><g><path d="m292.752 190.964 2.107-23.912a85.263 85.263 0 0 0-20.2-62.956l-.708-.826c-4.027-4.698-9.603-7.274-15.509-7.317l-.867-.006a20.75 20.75 0 0 0-15.93 7.244l-.365.426c-15.277 17.823-22.696 41.025-20.57 64.372a21152.03 21152.03 0 0 1 3.51 39.022l-111.456 49.041v35l95.117-15.219M319.372 220.913l79.864 35.14v35l-113.7-18.192-7.771 88.192 24.142 24.142a20 20 0 0 1 5.858 14.142v16.716l-50-17.5-50 17.5v-16.716a20 20 0 0 1 5.858-14.142l24.142-24.142s-1.975-22.71-4.701-53.832" style="stroke-width:20;stroke-linecap:round;stroke-linejoin:round;stroke-miterlimit:10;" fill="none" stroke="#fabb03" stroke-width="20" stroke-linecap="round" stroke-linejoin="round" stroke-miterlimit="10" data-original="#000000" opacity="1" class=""></path><path d="M395.358 53.273C355.742 25.987 307.741 10 256 10 120.138 10 10 120.138 10 256s110.138 246 246 246 246-110.138 246-246c0-51.741-15.987-99.741-43.273-139.358M50 256c0-113.589 92.411-206 206-206 49.608 0 95.174 17.628 130.77 46.946L96.946 386.77C67.628 351.174 50 305.608 50 256zm206 206c-49.608 0-95.174-17.628-130.77-46.946L415.054 125.23C444.372 160.826 462 206.392 462 256c0 113.589-92.411 206-206 206z" style="stroke-width:20;stroke-linecap:round;stroke-linejoin:round;stroke-miterlimit:10;" fill="none" stroke="#fabb03" stroke-width="20" stroke-linecap="round" stroke-linejoin="round" stroke-miterlimit="10" data-original="#000000" opacity="1" class=""></path></g></svg>