<svg xmlns="http://www.w3.org/2000/svg" version="1.1" xmlns:xlink="http://www.w3.org/1999/xlink" width="512" height="512" x="0" y="0" viewBox="0 0 512 512" style="enable-background:new 0 0 512 512" xml:space="preserve" class=""><g><path d="M501.128 334.845c-3.532-10.427-11.968-18-23.754-21.323-5.19-1.463-11.029-2.123-17.465-2.008 30.742-54.698 21.332-124.419-24.025-169.032l21.421-74.605 25.9-14.953c24.408-14.092 20.494-26.956 17.679-31.833-7.206-12.479-31.351-16.14-46.974-7.12l-36.223 20.914-65.927-16.413a6.998 6.998 0 0 0-5.191.73L328.924 29.39a7.002 7.002 0 0 0 .096 12.18l39.257 21.841-35.534 20.516-33.006-11.895a6.988 6.988 0 0 0-6.241.751l-13.464 8.927a6.998 6.998 0 0 0-.556 11.259l18.208 14.848c-35.935 10.493-66.09 34.84-84.069 68.398-18.215 33.999-21.741 73.066-10.24 109.092-21.564-3.237-39.796 4.598-62.492 15.698-17.634 8.622-35.188 16.976-51.792 24.823l-3.479-8.353c-4.616-11.085-17.396-16.357-28.482-11.751L22.459 320.12c-5.405 2.245-9.602 6.438-11.817 11.808-2.215 5.369-2.196 11.301.054 16.704l58.712 140.982c3.483 8.363 11.61 13.417 20.155 13.417 2.78 0 5.606-.535 8.328-1.666l34.672-14.397c5.405-2.245 9.602-6.438 11.817-11.807s2.196-11.302-.054-16.705l-3.933-9.443 22.599-10.987c8.253-4.014 16.552-4.72 25.365-2.161l72.119 20.94c5.31 1.542 10.797 2.201 16.365 2.201 19.169-.001 39.27-7.822 56.166-14.398 1.488-.579 2.948-1.147 4.376-1.697l135.35-52.157c21.911-8.445 35.446-35.093 28.395-55.909zm-58.874-21.353c-4.431.862-9.065 1.998-13.902 3.416l-4.448 1.305c-.774-6.015-2.661-11.495-4.296-16.221-3.876-11.205-3.239-12.246-.639-13.849 19.747-12.174 20.042-28.923 20.258-41.152.132-7.457.352-12.164 3.101-14.852 2.192-2.143 7.559-4.525 20.568-4.568 3.551 29.411-3.121 60.011-20.642 85.921zM346.619 35.339l4.502-2.599 49.104 12.224-17.815 10.287zM298.3 86.395l32.755 11.804a7.002 7.002 0 0 0 5.873-.522L460.91 26.095c9.731-5.616 25.113-2.745 27.849 1.995.915 1.583-1.686 6.434-12.554 12.708l-28.348 16.367a7.002 7.002 0 0 0-3.228 4.131l-25.582 89.095-4.502 2.599 1.038-65.314a6.997 6.997 0 0 0-6.999-7.111 6.997 6.997 0 0 0-3.378.869c-.176.098-17.851 9.812-37.134 18.322-34.912 15.408-42.392 12.61-43.031 12.304l-29.35-23.934zm82.973 22.748a555.286 555.286 0 0 0 20.124-9.858l-.288 18.127a138.804 138.804 0 0 0-19.836-8.269zm-70.065 9.701 5.149 4.199.127.102c4.907 3.815 14.407 6.395 43.677-4.943 4.66.848 9.244 1.946 13.74 3.297 4.552 15.807 5.011 27.14 1.352 33.711-3.26 5.854-10.059 7.602-16.633 9.292-1.673.43-3.253.836-4.794 1.312-4.147 1.283-9.188 3.431-11.376 8.699-2.374 5.716.106 11.619 2.177 15.562 3.075 5.854 10.648 11.193 18.667 16.848 3.9 2.75 7.933 5.594 10.9 8.165 1.031.894 1.506 1.565 1.718 1.945-.503.396-1.658 1.04-3.737 1.482-.9.175-4.459.349-7.319.488-8.844.431-22.208 1.083-32.372 3.897-3.64 1.008-14.718 4.075-16.9 13.552-2.313 10.051 7.688 18.868 10.975 21.766 9.707 8.558 19.58 21.408 18.758 28.366-.161 1.364-.79 3.166-4.254 5.002-11.985 6.353-19.418-.568-26.005-8.201-2.792-3.236-6.239-9.916-9.888-16.986-7.582-14.691-16.176-31.343-28.164-36.016-1.072-.418-2.199-.714-3.392-1.026-6.478-1.697-18.535-4.857-20.11-37.061-.317-6.473-7.53-21.575-13.704-30.198 18.073-22.035 43.057-37.315 71.408-43.254zm-85.252 63.981a129.147 129.147 0 0 1 5.084-8.648c3.833 6.526 8.238 15.863 8.482 18.804 2.078 42.459 22.026 47.688 30.544 49.92.721.188 1.538.402 1.857.526 7.059 2.752 15.005 18.149 20.808 29.393 4.215 8.168 7.856 15.222 11.729 19.712 4.167 4.828 13.508 15.656 27.561 15.655 4.683 0 9.89-1.203 15.602-4.23 8.59-4.554 11.049-11.067 11.6-15.729 1.973-16.705-17.414-35.23-23.403-40.511-5.592-4.93-6.433-7.515-6.555-8.096.335-.388 1.856-1.815 6.958-3.228 8.665-2.399 21.094-3.006 29.318-3.407 5.164-.252 7.727-.39 9.54-.775 7.771-1.653 13.084-5.925 14.579-11.721 1.409-5.468-.884-11.292-6.293-15.981-3.496-3.03-7.82-6.079-12.002-9.027-5.417-3.819-12.835-9.05-14.341-11.916-.921-1.754-1.288-2.866-1.434-3.484.428-.213 1.158-.517 2.375-.893 1.218-.377 2.639-.742 4.144-1.129 8.1-2.082 19.194-4.934 25.378-16.039 4.62-8.297 5.382-19.678 2.312-34.534a125.768 125.768 0 0 1 11.061 5.728l-.507 31.899a7 7 0 0 0 10.499 6.174l17.645-10.188a6.993 6.993 0 0 0 2.849-3.134c14.542 16.14 24.302 35.363 29.075 55.636-13.476.312-22.257 3.033-27.877 8.526-6.998 6.841-7.157 15.877-7.312 24.614-.202 11.443-.376 21.325-13.607 29.481-12.975 7.999-8.507 20.913-5.245 30.343 1.766 5.105 3.572 10.347 3.848 15.657l-72.205 21.182c-4.626-9.451-13.153-16.933-24.091-19.863l-64.187-17.199c-11.028-7.728-20.85-13.112-29.905-16.594-13.948-34.743-11.771-73.539 6.116-106.924zm-94.518 286.997c-.788 1.91-2.295 3.407-4.244 4.217l-34.672 14.397c-3.968 1.646-8.539-.238-10.19-4.204L23.62 343.249c-.811-1.948-.824-4.072-.036-5.982s2.295-3.407 4.245-4.217L62.5 318.653a7.76 7.76 0 0 1 2.979-.596c3.056 0 5.964 1.808 7.21 4.8l58.712 140.981c.812 1.948.825 4.073.037 5.984zm336.26-92.133-135.35 52.157c-1.442.557-2.917 1.13-4.419 1.715-19.834 7.719-44.517 17.326-63.55 11.799l-72.118-20.94c-12.128-3.521-24.036-2.507-35.391 3.017l-21.868 10.632-40.522-97.304c16.825-7.951 34.636-16.425 52.554-25.186 34.501-16.87 54.426-24.313 95.645 4.916.678.48 1.435.837 2.237 1.052l65.391 17.521c6.079 1.629 11.176 5.555 14.352 11.056 3.176 5.5 4.028 11.878 2.399 17.957-3.381 12.616-16.398 20.13-29.013 16.75l-86.902-23.286a7 7 0 0 0-3.624 13.523l86.902 23.286c20.075 5.377 40.781-6.576 46.16-26.65a37.512 37.512 0 0 0 1.163-12.798l90.55-26.564c29.917-8.776 50.694-5.414 55.574 8.994 4.624 13.652-5.367 32.649-20.17 38.353z" fill="#fabb03" opacity="1" data-original="#000000" class=""></path></g></svg>