<svg width="20" height="20" viewBox="0 0 20 20" fill="none" xmlns="http://www.w3.org/2000/svg">
<path d="M6.98129 10.085L8.46514 12.1528C9.21343 11.8795 9.93358 11.4977 10.6109 11.0152C11.2833 10.5119 11.9027 9.90543 12.4548 9.20994L11.7948 6.53211C11.4249 5.03192 11.8048 3.39422 12.7547 2.39659L14.2066 0.871405C14.7894 0.253891 15.5416 -0.0556889 16.3039 0.00825119C17.0661 0.0721912 17.7785 0.504625 18.2902 1.21395C20.106 3.70176 20.7199 7.53223 18.9181 10.4001C17.3317 12.9217 15.3858 15.0546 13.1787 16.6909C10.9824 18.3313 8.55473 19.4296 6.02738 19.9263C3.18366 20.4763 0.907879 17.8735 0.131955 14.6281C-0.332 12.6929 0.463922 10.6276 1.94778 9.91753L3.69761 9.07992C4.84949 8.52985 6.14937 8.9249 6.98129 10.085Z" fill="black"/>
</svg>
