<svg width="78" height="79" viewBox="0 0 78 79" fill="none" xmlns="http://www.w3.org/2000/svg">
<path d="M57.2243 29.1388H64.3539L58.6569 42.0989M43.8657 38.2738H35.7273C35.7273 38.2738 40.0362 30.4635 40.7474 29.591C41.4664 28.7088 42.1473 29.259 42.2122 30.0372C42.2771 30.8154 42.1797 42.0989 42.1797 42.0989M33.62 42.1958C33.62 42.1958 27.3145 42.275 27.0157 42.1755C26.7171 42.0759 27.4945 41.55 31.6287 35.6432C32.4008 34.54 32.8258 33.6094 33.0065 32.8297L33.0706 32.3283C33.0706 30.4968 31.5859 29.0121 29.7544 29.0121C28.1428 29.0121 26.7997 30.1617 26.5005 31.6856M52.7879 29.1388L47.5829 42.2256" stroke="#FABB03" stroke-width="3.86719" stroke-miterlimit="10" stroke-linecap="round" stroke-linejoin="round"/>
<path d="M3.71066 43.371C1.94347 39.3956 0.842332 35.2089 1.21496 31.2706C1.30774 30.2911 1.76127 29.3807 2.45702 28.6851L8.19749 22.9446C9.84006 21.302 12.5579 21.4998 13.9453 23.3629L20.4293 31.9824C20.7642 32.4276 20.9249 32.9798 20.8813 33.5351C20.8376 34.0905 20.5926 34.6108 20.1923 34.9982L15.9922 39.0629C15.7419 39.305 15.5822 39.6256 15.5396 39.9712C15.497 40.3168 15.5741 40.6666 15.758 40.9623V40.9624C21.3482 49.9499 28.9299 57.5316 37.9173 63.1218C38.213 63.3056 38.5628 63.3827 38.9084 63.3401C39.254 63.2975 39.5745 63.1378 39.8167 62.8876L43.8813 58.6875C44.2687 58.2872 44.789 58.0422 45.3444 57.9985C45.8998 57.9549 46.452 58.1156 46.8972 58.4504L55.5167 64.9345C57.3798 66.3219 57.5776 69.0397 55.935 70.6823L50.1945 76.4227C49.4733 77.1427 48.5217 77.5857 47.5064 77.6742C33.6723 78.8925 16.8297 62.0502 16.8297 62.0502C16.8297 62.0502 10.7035 55.924 6.10779 48.0262" stroke="#FABB03" stroke-width="3.86719" stroke-miterlimit="10" stroke-linecap="round" stroke-linejoin="round"/>
<path d="M24.2664 14.3923C35.45 4.36717 52.6526 4.72898 63.4015 15.4779C74.5251 26.6014 74.5251 44.636 63.4015 55.7596C60.3009 58.8602 56.6634 61.0965 52.7881 62.4685M16.3768 26.188C17.4089 23.2385 18.9226 20.4805 20.8563 18.0259" stroke="#FABB03" stroke-width="3.86719" stroke-miterlimit="10" stroke-linecap="round" stroke-linejoin="round"/>
<path d="M68.5445 13.4929C80.116 26.6899 79.6069 46.7855 67.0171 59.3752C64.0355 62.3567 60.6329 64.6608 57.0008 66.2872M12.6145 21.8289C14.2397 18.2154 16.5363 14.8302 19.5042 11.8622C31.95 -0.583484 51.731 -1.22348 64.9312 9.94255" stroke="#FABB03" stroke-width="3.86719" stroke-miterlimit="10" stroke-linecap="round" stroke-linejoin="round"/>
</svg>
