<svg width="70" height="70" viewBox="0 0 70 70" fill="none" xmlns="http://www.w3.org/2000/svg">
<g clip-path="url(#clip0_56_299)">
<path d="M24.4886 17.03C24.291 17.6381 24.4855 18.2899 24.9839 18.6907L29.4218 22.2576L27.9281 27.752C27.7604 28.3689 27.9863 29.0105 28.5039 29.3869C29.0216 29.7625 29.7012 29.779 30.2363 29.429L35.0001 26.3105L39.7641 29.4291C40.0124 29.5927 40.3031 29.6802 40.6005 29.6807C40.9227 29.6802 41.2364 29.5773 41.4963 29.3869C42.0141 29.0109 42.2401 28.3689 42.072 27.752L40.5783 22.2578L45.0159 18.6909C45.5148 18.2903 45.7093 17.6384 45.5115 17.03C45.3139 16.4214 44.7733 16.0083 44.1345 15.9774L38.4476 15.7001L36.4265 10.3773C36.1996 9.77938 35.6396 9.39288 35 9.39288C34.3604 9.39288 33.8003 9.77924 33.5736 10.3772L31.5524 15.7003L25.8658 15.9774C25.2268 16.0083 24.6862 16.4214 24.4886 17.03ZM32.0648 17.8271C32.3613 17.8127 32.6472 17.7121 32.8874 17.5376C33.1275 17.3631 33.3115 17.1223 33.4168 16.8447L34.9999 12.6755L36.5829 16.8451C36.6884 17.1225 36.8724 17.3632 37.1126 17.5376C37.3527 17.712 37.6385 17.8126 37.9349 17.8271L42.3892 18.0443L38.913 20.8382C38.6816 21.0242 38.5095 21.2736 38.4178 21.556C38.3261 21.8383 38.3187 22.1413 38.3966 22.4277L39.5666 26.7311L35.8352 24.2885C35.5868 24.1259 35.2964 24.0394 34.9995 24.0394C34.7026 24.0394 34.4122 24.126 34.1639 24.2886L30.4327 26.7311L31.6027 22.428C31.6807 22.1415 31.6733 21.8384 31.5816 21.556C31.4898 21.2736 31.3176 21.0242 31.0861 20.8382L27.6101 18.0445L32.0648 17.8271ZM33.9251 5.89817V1.95423C33.9251 1.6692 34.0384 1.39584 34.2399 1.19429C34.4415 0.992745 34.7148 0.879517 34.9999 0.879517C35.2849 0.879517 35.5583 0.992745 35.7598 1.19429C35.9613 1.39584 36.0746 1.6692 36.0746 1.95423V5.89817C36.0746 6.18321 35.9613 6.45656 35.7598 6.65811C35.5583 6.85966 35.2849 6.97289 34.9999 6.97289C34.7148 6.97289 34.4415 6.85966 34.2399 6.65811C34.0384 6.45656 33.9251 6.18321 33.9251 5.89817ZM40.47 12.2656C40.2793 12.0538 40.1805 11.7749 40.1955 11.4902C40.2104 11.2056 40.3378 10.9386 40.5496 10.7478L44.9445 6.79046C45.0494 6.69601 45.1718 6.62315 45.3049 6.57603C45.4379 6.52891 45.5789 6.50845 45.7199 6.51583C45.8608 6.52321 45.9989 6.55828 46.1263 6.61903C46.2537 6.67979 46.3679 6.76504 46.4623 6.86992C46.5568 6.9748 46.6296 7.09725 46.6767 7.23029C46.7239 7.36333 46.7443 7.50435 46.7369 7.64529C46.7296 7.78624 46.6945 7.92435 46.6337 8.05174C46.573 8.17913 46.4877 8.29331 46.3829 8.38775L41.9878 12.3451C41.7907 12.5231 41.5345 12.6215 41.2689 12.6212C41.1183 12.6214 40.9692 12.5898 40.8316 12.5286C40.6939 12.4673 40.5707 12.3777 40.47 12.2656ZM23.5373 6.86999C23.6318 6.76509 23.746 6.67982 23.8734 6.61905C24.0007 6.55829 24.1389 6.52321 24.2798 6.51582C24.4208 6.50844 24.5618 6.52889 24.6948 6.57601C24.8279 6.62313 24.9504 6.696 25.0552 6.79046L29.4503 10.7478C29.6621 10.9386 29.7895 11.2056 29.8044 11.4903C29.8193 11.7749 29.7205 12.0539 29.5298 12.2657C29.339 12.4775 29.0719 12.6048 28.7873 12.6198C28.5026 12.6347 28.2237 12.5359 28.0119 12.3451L23.6169 8.38775C23.4051 8.19703 23.2777 7.92998 23.2628 7.64534C23.2479 7.36071 23.3466 7.0818 23.5373 6.86999ZM48.7877 18.6907L53.2256 22.2576L51.7318 27.752C51.5642 28.3689 51.79 29.0105 52.3076 29.3869C52.825 29.7625 53.5047 29.7789 54.0401 29.429L58.8039 26.3105L63.5678 29.4291C63.8161 29.5927 64.1069 29.6802 64.4042 29.6807C64.7264 29.6802 65.0401 29.5773 65.3 29.3869C65.8176 29.0112 66.0436 28.3694 65.8758 27.752L64.3821 22.2578L68.8197 18.6909C69.3184 18.2905 69.5129 17.6385 69.3152 17.03C69.1175 16.4214 68.577 16.0083 67.9383 15.9774L62.2513 15.7001L60.2304 10.3773C60.0035 9.77938 59.4435 9.39288 58.8039 9.39288C58.1642 9.39288 57.6041 9.77924 57.3772 10.3772L55.3563 15.7001L49.6697 15.9773C49.0306 16.0082 48.49 16.4214 48.2924 17.03C48.0946 17.6384 48.2891 18.2903 48.7877 18.6907ZM55.8684 17.8271C56.165 17.8127 56.451 17.7121 56.6912 17.5376C56.9314 17.363 57.1155 17.1222 57.2208 16.8446L58.8037 12.6753L60.3865 16.8444C60.4919 17.122 60.6759 17.3629 60.9161 17.5374C61.1563 17.712 61.4422 17.8126 61.7388 17.827L66.1931 18.0442L62.7173 20.8378C62.4858 21.0237 62.3135 21.2732 62.2217 21.5556C62.1299 21.838 62.1226 22.141 62.2005 22.4276L63.3705 26.731L59.6391 24.2883C59.3907 24.1257 59.1003 24.039 58.8034 24.0391C58.5065 24.0391 58.2161 24.1258 57.9678 24.2885L54.2366 26.731L55.4066 22.4278C55.4845 22.1413 55.4771 21.8383 55.3854 21.5559C55.2936 21.2735 55.1215 21.0241 54.89 20.8381L51.414 18.0442L55.8684 17.8271ZM1.17988 18.6907L5.61779 22.2576L4.12407 27.752C3.95641 28.3689 4.18224 29.0105 4.69985 29.3869C5.21759 29.7625 5.89722 29.779 6.43229 29.429L11.1961 26.3105L15.9601 29.4291C16.2083 29.5927 16.4991 29.6802 16.7965 29.6807C17.1186 29.6802 17.4323 29.5773 17.6922 29.3869C18.2098 29.0112 18.4358 28.3694 18.268 27.752L16.7743 22.2578L21.2119 18.6909C21.7103 18.2907 21.905 17.6389 21.7074 17.0293C21.5093 16.4211 20.9688 16.0082 20.3305 15.9773L14.6435 15.7L12.6227 10.3773C12.3958 9.77938 11.8357 9.39288 11.1961 9.39288C10.5564 9.39288 9.99632 9.77924 9.76942 10.3772L7.74855 15.7001L2.06196 15.9773C1.4229 16.0082 0.88232 16.4214 0.684841 17.0293C0.48669 17.638 0.68108 18.2902 1.17988 18.6907ZM8.26065 17.8271C8.55724 17.8127 8.84318 17.7121 9.08341 17.5376C9.32363 17.363 9.50771 17.1222 9.61305 16.8446L11.196 12.6753L12.7788 16.8444C12.8841 17.122 13.0681 17.3629 13.3083 17.5374C13.5485 17.712 13.8345 17.8126 14.131 17.827L18.5853 18.0442L15.1096 20.8378C14.878 21.0237 14.7058 21.2732 14.614 21.5556C14.5222 21.838 14.5148 22.141 14.5927 22.4276L15.7627 26.731L12.0313 24.2883C11.7829 24.1257 11.4925 24.039 11.1956 24.0391C10.8987 24.0391 10.6083 24.1258 10.36 24.2885L6.62883 26.731L7.79879 22.4278C7.87671 22.1413 7.86934 21.8383 7.77759 21.5559C7.68584 21.2735 7.5137 21.0241 7.28226 20.8381L3.80622 18.0442L8.26065 17.8271ZM69.2216 57.9648C68.4655 55.5228 66.9166 53.3301 64.8603 51.7903C63.8893 51.0622 62.815 50.4832 61.673 50.0725C63.2409 48.842 64.2511 46.9317 64.2511 44.7885C64.2511 41.0853 61.2383 38.0726 57.5352 38.0726C53.832 38.0726 50.8191 41.0853 50.8191 44.7885C50.8191 46.9291 51.827 48.8375 53.3918 50.0682C51.2946 50.8167 49.4367 52.1319 48.0139 53.9041C47.3436 52.9662 46.5744 52.1032 45.7195 51.3299C43.9999 49.7735 41.9617 48.6107 39.7467 47.9225C42.0755 46.3787 43.6151 43.7353 43.6151 40.7381C43.6151 35.9878 39.7502 32.1231 35 32.1231C30.2498 32.1231 26.3849 35.9878 26.3849 40.7381C26.3849 43.7353 27.9243 46.3787 30.2531 47.9225C28.0381 48.6106 25.9998 49.7734 24.2802 51.3299C23.4253 52.1031 22.6562 52.9661 21.986 53.904C20.5633 52.1317 18.7054 50.8165 16.6081 50.0678C18.1728 48.8371 19.1807 46.9287 19.1807 44.7881C19.1807 41.0849 16.1679 38.0722 12.4648 38.0722C8.7616 38.0722 5.74877 41.0849 5.74877 44.7881C5.74877 46.9311 6.759 48.8416 8.32675 50.0721C7.18468 50.4829 6.11034 51.0618 5.13927 51.7899C3.08294 53.3296 1.53414 55.5224 0.777939 57.9643C0.428521 59.0922 0.622105 60.2369 1.32295 61.1878C2.02367 62.1383 3.05996 62.6617 4.24081 62.6617H19.0978V64.6013C19.0978 67.3916 21.3678 69.6615 24.158 69.6615H45.8417C48.6318 69.6615 50.9019 67.3916 50.902 64.6013V62.6623H65.7589C66.9399 62.6623 67.9762 62.1388 68.6768 61.1883C69.3775 60.2374 69.5711 59.0926 69.2216 57.9648ZM57.5352 40.2221C60.0531 40.2221 62.1017 42.2706 62.1017 44.7885C62.1017 47.3066 60.0531 49.3551 57.5352 49.3551C55.0171 49.3551 52.9686 47.3066 52.9686 44.7885C52.9686 42.2706 55.0171 40.2221 57.5352 40.2221ZM28.5344 40.7381C28.5344 37.173 31.4349 34.2726 35 34.2726C38.5651 34.2726 41.4656 37.173 41.4656 40.7381C41.4656 44.3021 38.567 47.2017 35.0035 47.2036H34.9964C31.4329 47.2015 28.5344 44.302 28.5344 40.7381ZM12.4648 40.2215C14.9827 40.2215 17.0313 42.2701 17.0313 44.788C17.0313 47.306 14.9827 49.3546 12.4648 49.3546C9.94675 49.3546 7.8982 47.306 7.8982 44.788C7.8982 42.2701 9.94675 40.2215 12.4648 40.2215ZM19.2374 60.5122H4.24094C3.7463 60.5122 3.34678 60.3104 3.05325 59.9122C2.75958 59.514 2.68502 59.0726 2.83132 58.6001C4.1457 54.3557 8.01723 51.504 12.4648 51.504C15.8291 51.504 18.8938 53.1295 20.7787 55.8812C20.0297 57.3364 19.5098 58.8984 19.2374 60.5122ZM48.7526 64.6012C48.7525 66.2061 47.4467 67.5119 45.8417 67.5119H24.158C22.553 67.5119 21.2473 66.2061 21.2473 64.6012V61.6453C22.0254 54.6344 27.9261 49.3547 34.9964 49.353L35 49.3531L35.0035 49.353C42.0736 49.3549 47.9742 54.6344 48.7526 61.6453V64.6012ZM66.9466 59.9129C66.6531 60.3109 66.2537 60.5127 65.7589 60.5127H50.7626C50.49 58.8989 49.9702 57.3368 49.2213 55.8815C51.1064 53.1299 54.1709 51.5046 57.535 51.5046C61.9826 51.5046 65.8542 54.3563 67.1685 58.6008C67.3148 59.073 67.2401 59.5144 66.9466 59.9129Z" fill="#FABB03"/>
</g>
<defs>
<clipPath id="clip0_56_299">
<rect width="68.7818" height="68.7818" fill="white" transform="translate(0.60907 0.879517)"/>
</clipPath>
</defs>
</svg>
