<svg width="78" height="79" viewBox="0 0 78 79" fill="none" xmlns="http://www.w3.org/2000/svg">
<path d="M7.43431 74.0776H70.5656C71.1488 74.0815 71.7223 73.9286 72.2262 73.6348C72.73 73.3411 73.1457 72.9174 73.4296 72.4079C73.7253 71.9034 73.8811 71.3291 73.8811 70.7443C73.8811 70.1595 73.7253 69.5853 73.4296 69.0807L62.8874 51.4454C62.5864 50.9377 62.1585 50.517 61.6456 50.2249C61.1328 49.9327 60.5527 49.779 59.9624 49.779C59.3722 49.779 58.7921 49.9327 58.2792 50.2249C57.7664 50.517 57.3384 50.9377 57.0374 51.4454L55.6846 53.7123L44.9962 32.7742C44.5562 31.9151 43.8875 31.1941 43.0639 30.6909C42.2402 30.1877 41.2936 29.9217 40.3284 29.9223H35.3437V19.7092H47.4337V20.9279C47.4321 21.4219 47.528 21.9113 47.7159 22.3682C47.9038 22.825 48.1801 23.2402 48.5288 23.5901C48.8775 23.94 49.2919 24.2176 49.7481 24.407C50.2043 24.5964 50.6935 24.6939 51.1874 24.6939H68.969C69.2082 24.6937 69.4421 24.6231 69.6415 24.4909C69.8409 24.3587 69.9969 24.1707 70.0902 23.9504C70.1825 23.7312 70.2086 23.4897 70.1653 23.2558C70.1219 23.0219 70.0111 22.8058 69.8465 22.6342L65.1056 17.6739L69.8465 12.7257C70.0111 12.5541 70.1219 12.338 70.1653 12.1041C70.2086 11.8702 70.1825 11.6287 70.0902 11.4095C70.0026 11.1824 69.849 10.9867 69.6492 10.8477C69.4493 10.7086 69.2124 10.6326 68.969 10.6295H54.344V9.41073C54.344 8.41518 53.9485 7.46039 53.2445 6.75643C52.5406 6.05247 51.5858 5.65698 50.5902 5.65698H34.1249C33.8017 5.65698 33.4917 5.78539 33.2631 6.01395C33.0346 6.24251 32.9062 6.5525 32.9062 6.87573V29.9223H27.8118C26.8487 29.9239 25.9046 30.191 25.0833 30.6941C24.262 31.1972 23.5952 31.9169 23.1562 32.7742L4.49712 69.2757C4.24087 69.7788 4.11786 70.3392 4.13983 70.9033C4.1618 71.4675 4.32802 72.0166 4.62262 72.4982C4.91722 72.9798 5.33036 73.3779 5.82259 73.6544C6.31483 73.9309 6.86973 74.0766 7.43431 74.0776ZM66.1171 13.067L62.534 16.7964C62.3143 17.0236 62.1915 17.3273 62.1915 17.6434C62.1915 17.9595 62.3143 18.2632 62.534 18.4904L66.1171 22.2198H51.1874C51.0146 22.2198 50.8434 22.1857 50.6837 22.1196C50.524 22.0535 50.3789 21.9565 50.2567 21.8343C50.1345 21.712 50.0375 21.5669 49.9714 21.4073C49.9052 21.2476 49.8712 21.0764 49.8712 20.9035V19.6848H50.6024C51.598 19.6848 52.5528 19.2893 53.2567 18.5853C53.9607 17.8814 54.3562 16.9266 54.3562 15.931V13.067H66.1171ZM51.8577 9.41073V15.931C51.8577 16.2801 51.7191 16.6149 51.4722 16.8618C51.2254 17.1086 50.8906 17.2473 50.5415 17.2473H35.3437V8.11886H50.5415C50.8864 8.1188 51.2176 8.25412 51.4637 8.49572C51.7099 8.73732 51.8514 9.06588 51.8577 9.41073ZM59.1702 52.6642C59.2551 52.5197 59.3762 52.3998 59.5215 52.3165C59.6669 52.2331 59.8314 52.1891 59.999 52.1889C60.167 52.1866 60.3326 52.2295 60.4784 52.3132C60.6242 52.3968 60.7448 52.518 60.8277 52.6642L71.309 70.3482C71.3901 70.478 71.433 70.6279 71.433 70.7809C71.433 70.9339 71.3901 71.0838 71.309 71.2135C71.2373 71.3479 71.1301 71.46 70.9989 71.5374C70.8678 71.6148 70.7178 71.6545 70.5656 71.6523H47.8481L59.1702 52.6642ZM25.3134 33.8832C25.5491 33.4238 25.9072 33.0384 26.348 32.7696C26.7889 32.5008 27.2954 32.359 27.8118 32.3598H40.3284C40.834 32.3713 41.3273 32.5189 41.7562 32.787C42.1851 33.0551 42.5339 33.4338 42.7659 33.8832L49.6152 47.192L42.4368 43.7795C42.2515 43.6725 42.0414 43.6162 41.8274 43.6162C41.6135 43.6162 41.4033 43.6725 41.2181 43.7795L34.1249 48.4107L26.8124 43.8404C26.6272 43.7335 26.417 43.6771 26.2031 43.6771C25.9891 43.6771 25.779 43.7335 25.5937 43.8404L18.5127 47.192L25.3134 33.8832ZM6.6665 70.3482L16.6968 50.7264L26.1299 46.2292L33.4424 50.836C33.6361 50.9571 33.86 51.0213 34.0884 51.0213C34.3168 51.0213 34.5406 50.9571 34.7343 50.836L42.0468 46.2292L51.4921 50.7264L54.2587 56.1498L45.0084 71.6401H7.43431C7.28678 71.6413 7.14156 71.6036 7.0132 71.5308C6.88485 71.4581 6.77789 71.3529 6.70306 71.2257C6.61537 71.0976 6.56545 70.9474 6.55898 70.7922C6.55252 70.6371 6.58977 70.4832 6.6665 70.3482Z" fill="#FABB03"/>
</svg>
